<?xml version="1.0" encoding="utf-8"?>
<!-- Generator: Adobe Illustrator 24.1.1, SVG Export Plug-In . SVG Version: 6.00 Build 0)  -->
<svg version="1.1" id="Layer_1" xmlns="http://www.w3.org/2000/svg" xmlns:xlink="http://www.w3.org/1999/xlink" x="0px" y="0px"
	 viewBox="0 0 390.2 51.1" style="enable-background:new 0 0 390.2 51.1;" xml:space="preserve">
<path d="M0,49.7V1.4c0-0.7,0.5-1.2,1.2-1.2h9.7c0.8,0,1.2,0.4,1.2,1.2V41h50.8c0.8,0,1.2,0.4,1.2,1.2v7.6c0,0.7-0.5,1.2-1.2,1.2H1.2
	C0.5,50.9,0,50.4,0,49.7z M69.4,37.6V1.4c0-0.7,0.5-1.2,1.2-1.2h9.7c0.8,0,1.2,0.4,1.2,1.2v35.4c0,3.1,1.6,4.1,4.5,4.1h36.9
	c3,0,4.5-1,4.5-4.1V1.4c0-0.7,0.4-1.2,1.2-1.2h9.7c0.8,0,1.2,0.4,1.2,1.2v36.2c0,8.2-4.2,13.2-13.8,13.2H83.2
	C73.6,50.9,69.4,45.9,69.4,37.6z M150.1,49.7V1.4c0-0.7,0.5-1.2,1.2-1.2h14.1c0.8,0,1.2,0.4,1.7,1.1l24,36.5h1.1l24-36.5
	c0.5-0.7,0.9-1.1,1.7-1.1H232c0.8,0,1.2,0.4,1.2,1.2v48.3c0,0.7-0.4,1.2-1.2,1.2h-9.7c-0.8,0-1.2-0.4-1.2-1.2V15.3h-0.9l-22.5,34.4
	c-0.5,0.7-1,1.2-1.9,1.2h-8.4c-0.8,0-1.3-0.4-1.8-1.2L163,15.3h-0.9v34.4c0,0.7-0.4,1.2-1.2,1.2h-9.7
	C150.5,50.9,150.1,50.4,150.1,49.7z M312.1,13.1v25c0,8.1-5.2,13.1-13,13.1h-44.2c-7.7,0-13-5-13-13.1v-25c0-8.1,5.3-13.1,13-13.1
	h44.3C306.8,0,312.1,5,312.1,13.1z M277.1,42.1c6.7,0,12.3-5.3,12.3-11.5c0-2.4-0.8-4.6-2.1-6.4l-8.4-13.9c-1.2-2-2.5-2-3.6,0
	l-8.4,13.9c-1.3,1.9-2,4-2,6.4C264.9,36.8,270.3,42.1,277.1,42.1z M321.3,49.7V1.4c0-0.7,0.5-1.2,1.2-1.2h11.3c0.7,0,1,0.3,1.7,0.9
	L377,37.6h1V1.4c0-0.7,0.5-1.2,1.2-1.2h9.7c0.8,0,1.2,0.4,1.2,1.2v48.3c0,0.7-0.5,1.2-1.2,1.2h-11.3c-0.8,0-1.1-0.3-1.8-0.9
	l-41.3-36.4h-1.1v36.1c0,0.7-0.4,1.2-1.2,1.2h-9.7C321.8,50.9,321.3,50.4,321.3,49.7z"/>
</svg>
